<svg xmlns="http://www.w3.org/2000/svg" version="1.1" xmlns:xlink="http://www.w3.org/1999/xlink" xmlns:svgjs="http://svgjs.dev/svgjs" width="1440" height="560" preserveAspectRatio="none" viewBox="0 0 1440 560"><g mask="url(&quot;#SvgjsMask1303&quot;)" fill="none"><rect width="1440" height="560" x="0" y="0" fill="url(&quot;#SvgjsLinearGradient1304&quot;)"></rect><path d="M15.91 -17.2L80.86 20.3L80.86 95.3L15.91 132.8L-49.04 95.3L-49.04 20.3zM405.63 -17.2L470.59 20.3L470.59 95.3L405.63 132.8L340.68 95.3L340.68 20.3zM405.63 207.8L470.59 245.3L470.59 320.3L405.63 357.8L340.68 320.3L340.68 245.3zM535.54 -17.2L600.49 20.3L600.49 95.3L535.54 132.8L470.59 95.3L470.59 20.3zM600.49 320.3L665.45 357.8L665.45 432.8L600.49 470.3L535.54 432.8L535.54 357.8zM730.4 320.3L795.36 357.8L795.36 432.8L730.4 470.3L665.45 432.8L665.45 357.8zM665.45 432.8L730.4 470.3L730.4 545.3L665.45 582.8L600.49 545.3L600.49 470.3zM795.35 -17.2L860.31 20.3L860.31 95.3L795.35 132.8L730.4 95.3L730.4 20.3zM860.31 545.3L925.26 582.8L925.26 657.8L860.31 695.3L795.35 657.8L795.35 582.8zM1055.17 207.8L1120.12 245.3L1120.12 320.3L1055.17 357.8L990.22 320.3L990.22 245.3zM1185.08 432.8L1250.03 470.3L1250.03 545.3L1185.08 582.8L1120.12 545.3L1120.12 470.3zM1379.94 545.3L1444.89 582.8L1444.89 657.8L1379.94 695.3L1314.99 657.8L1314.99 582.8zM1444.89 207.8L1509.85 245.3L1509.85 320.3L1444.89 357.8L1379.94 320.3L1379.94 245.3z" stroke="rgba(255, 217, 61, 1)" stroke-width="2"></path><path d="M8.41 -17.2 a7.5 7.5 0 1 0 15 0 a7.5 7.5 0 1 0 -15 0zM73.36 20.3 a7.5 7.5 0 1 0 15 0 a7.5 7.5 0 1 0 -15 0zM73.36 95.3 a7.5 7.5 0 1 0 15 0 a7.5 7.5 0 1 0 -15 0zM8.41 132.8 a7.5 7.5 0 1 0 15 0 a7.5 7.5 0 1 0 -15 0zM-56.54 95.3 a7.5 7.5 0 1 0 15 0 a7.5 7.5 0 1 0 -15 0zM-56.54 20.3 a7.5 7.5 0 1 0 15 0 a7.5 7.5 0 1 0 -15 0zM398.13 -17.2 a7.5 7.5 0 1 0 15 0 a7.5 7.5 0 1 0 -15 0zM463.09 20.3 a7.5 7.5 0 1 0 15 0 a7.5 7.5 0 1 0 -15 0zM463.09 95.3 a7.5 7.5 0 1 0 15 0 a7.5 7.5 0 1 0 -15 0zM398.13 132.8 a7.5 7.5 0 1 0 15 0 a7.5 7.5 0 1 0 -15 0zM333.18 95.3 a7.5 7.5 0 1 0 15 0 a7.5 7.5 0 1 0 -15 0zM333.18 20.3 a7.5 7.5 0 1 0 15 0 a7.5 7.5 0 1 0 -15 0zM398.13 207.8 a7.5 7.5 0 1 0 15 0 a7.5 7.5 0 1 0 -15 0zM463.09 245.3 a7.5 7.5 0 1 0 15 0 a7.5 7.5 0 1 0 -15 0zM463.09 320.3 a7.5 7.5 0 1 0 15 0 a7.5 7.5 0 1 0 -15 0zM398.13 357.8 a7.5 7.5 0 1 0 15 0 a7.5 7.5 0 1 0 -15 0zM333.18 320.3 a7.5 7.5 0 1 0 15 0 a7.5 7.5 0 1 0 -15 0zM333.18 245.3 a7.5 7.5 0 1 0 15 0 a7.5 7.5 0 1 0 -15 0zM528.04 -17.2 a7.5 7.5 0 1 0 15 0 a7.5 7.5 0 1 0 -15 0zM592.99 20.3 a7.5 7.5 0 1 0 15 0 a7.5 7.5 0 1 0 -15 0zM592.99 95.3 a7.5 7.5 0 1 0 15 0 a7.5 7.5 0 1 0 -15 0zM528.04 132.8 a7.5 7.5 0 1 0 15 0 a7.5 7.5 0 1 0 -15 0zM592.99 320.3 a7.5 7.5 0 1 0 15 0 a7.5 7.5 0 1 0 -15 0zM657.95 357.8 a7.5 7.5 0 1 0 15 0 a7.5 7.5 0 1 0 -15 0zM657.95 432.8 a7.5 7.5 0 1 0 15 0 a7.5 7.5 0 1 0 -15 0zM592.99 470.3 a7.5 7.5 0 1 0 15 0 a7.5 7.5 0 1 0 -15 0zM528.04 432.8 a7.5 7.5 0 1 0 15 0 a7.5 7.5 0 1 0 -15 0zM528.04 357.8 a7.5 7.5 0 1 0 15 0 a7.5 7.5 0 1 0 -15 0zM722.9 320.3 a7.5 7.5 0 1 0 15 0 a7.5 7.5 0 1 0 -15 0zM787.86 357.8 a7.5 7.5 0 1 0 15 0 a7.5 7.5 0 1 0 -15 0zM787.86 432.8 a7.5 7.5 0 1 0 15 0 a7.5 7.5 0 1 0 -15 0zM722.9 470.3 a7.5 7.5 0 1 0 15 0 a7.5 7.5 0 1 0 -15 0zM722.9 545.3 a7.5 7.5 0 1 0 15 0 a7.5 7.5 0 1 0 -15 0zM657.95 582.8 a7.5 7.5 0 1 0 15 0 a7.5 7.5 0 1 0 -15 0zM592.99 545.3 a7.5 7.5 0 1 0 15 0 a7.5 7.5 0 1 0 -15 0zM787.85 -17.2 a7.5 7.5 0 1 0 15 0 a7.5 7.5 0 1 0 -15 0zM852.81 20.3 a7.5 7.5 0 1 0 15 0 a7.5 7.5 0 1 0 -15 0zM852.81 95.3 a7.5 7.5 0 1 0 15 0 a7.5 7.5 0 1 0 -15 0zM787.85 132.8 a7.5 7.5 0 1 0 15 0 a7.5 7.5 0 1 0 -15 0zM722.9 95.3 a7.5 7.5 0 1 0 15 0 a7.5 7.5 0 1 0 -15 0zM722.9 20.3 a7.5 7.5 0 1 0 15 0 a7.5 7.5 0 1 0 -15 0zM852.81 545.3 a7.5 7.5 0 1 0 15 0 a7.5 7.5 0 1 0 -15 0zM917.76 582.8 a7.5 7.5 0 1 0 15 0 a7.5 7.5 0 1 0 -15 0zM917.76 657.8 a7.5 7.5 0 1 0 15 0 a7.5 7.5 0 1 0 -15 0zM852.81 695.3 a7.5 7.5 0 1 0 15 0 a7.5 7.5 0 1 0 -15 0zM787.85 657.8 a7.5 7.5 0 1 0 15 0 a7.5 7.5 0 1 0 -15 0zM787.85 582.8 a7.5 7.5 0 1 0 15 0 a7.5 7.5 0 1 0 -15 0zM1047.67 207.8 a7.5 7.5 0 1 0 15 0 a7.5 7.5 0 1 0 -15 0zM1112.62 245.3 a7.5 7.5 0 1 0 15 0 a7.5 7.5 0 1 0 -15 0zM1112.62 320.3 a7.5 7.5 0 1 0 15 0 a7.5 7.5 0 1 0 -15 0zM1047.67 357.8 a7.5 7.5 0 1 0 15 0 a7.5 7.5 0 1 0 -15 0zM982.72 320.3 a7.5 7.5 0 1 0 15 0 a7.5 7.5 0 1 0 -15 0zM982.72 245.3 a7.5 7.5 0 1 0 15 0 a7.5 7.5 0 1 0 -15 0zM1177.58 432.8 a7.5 7.5 0 1 0 15 0 a7.5 7.5 0 1 0 -15 0zM1242.53 470.3 a7.5 7.5 0 1 0 15 0 a7.5 7.5 0 1 0 -15 0zM1242.53 545.3 a7.5 7.5 0 1 0 15 0 a7.5 7.5 0 1 0 -15 0zM1177.58 582.8 a7.5 7.5 0 1 0 15 0 a7.5 7.5 0 1 0 -15 0zM1112.62 545.3 a7.5 7.5 0 1 0 15 0 a7.5 7.5 0 1 0 -15 0zM1112.62 470.3 a7.5 7.5 0 1 0 15 0 a7.5 7.5 0 1 0 -15 0zM1372.44 545.3 a7.5 7.5 0 1 0 15 0 a7.5 7.5 0 1 0 -15 0zM1437.39 582.8 a7.5 7.5 0 1 0 15 0 a7.5 7.5 0 1 0 -15 0zM1437.39 657.8 a7.5 7.5 0 1 0 15 0 a7.5 7.5 0 1 0 -15 0zM1372.44 695.3 a7.5 7.5 0 1 0 15 0 a7.5 7.5 0 1 0 -15 0zM1307.49 657.8 a7.5 7.5 0 1 0 15 0 a7.5 7.5 0 1 0 -15 0zM1307.49 582.8 a7.5 7.5 0 1 0 15 0 a7.5 7.5 0 1 0 -15 0zM1437.39 207.8 a7.5 7.5 0 1 0 15 0 a7.5 7.5 0 1 0 -15 0zM1502.35 245.3 a7.5 7.5 0 1 0 15 0 a7.5 7.5 0 1 0 -15 0zM1502.35 320.3 a7.5 7.5 0 1 0 15 0 a7.5 7.5 0 1 0 -15 0zM1437.39 357.8 a7.5 7.5 0 1 0 15 0 a7.5 7.5 0 1 0 -15 0zM1372.44 320.3 a7.5 7.5 0 1 0 15 0 a7.5 7.5 0 1 0 -15 0zM1372.44 245.3 a7.5 7.5 0 1 0 15 0 a7.5 7.5 0 1 0 -15 0z" fill="rgba(255, 217, 61, 1)"></path><path d="M24.99 291.28L68.29 316.28L68.29 366.28L24.99 391.28L-18.31 366.28L-18.31 316.28zM24.99 441.28L68.29 466.28L68.29 516.28L24.99 541.28L-18.31 516.28L-18.31 466.28zM154.9 66.28L198.2 91.28L198.2 141.28L154.9 166.28L111.59 141.28L111.59 91.28zM198.2 -8.72L241.5 16.28L241.5 66.28L198.2 91.28L154.9 66.28L154.9 16.28zM198.2 441.28L241.5 466.28L241.5 516.28L198.2 541.28L154.9 516.28L154.9 466.28zM284.81 141.28L328.11 166.28L328.11 216.28L284.81 241.28L241.5 216.28L241.5 166.28zM371.41 -8.72L414.71 16.28L414.71 66.28L371.41 91.28L328.11 66.28L328.11 16.28zM371.41 291.28L414.71 316.28L414.71 366.28L371.41 391.28L328.11 366.28L328.11 316.28zM458.02 441.28L501.32 466.28L501.32 516.28L458.02 541.28L414.71 516.28L414.71 466.28zM544.62 141.28L587.92 166.28L587.92 216.28L544.62 241.28L501.32 216.28L501.32 166.28zM587.92 366.28L631.23 391.28L631.23 441.28L587.92 466.28L544.62 441.28L544.62 391.28zM587.92 516.28L631.23 541.28L631.23 591.28L587.92 616.28L544.62 591.28L544.62 541.28zM674.53 216.28L717.83 241.28L717.83 291.28L674.53 316.28L631.23 291.28L631.23 241.28zM761.13 66.28L804.44 91.28L804.44 141.28L761.13 166.28L717.83 141.28L717.83 91.28zM761.13 516.28L804.44 541.28L804.44 591.28L761.13 616.28L717.83 591.28L717.83 541.28zM804.44 291.28L847.74 316.28L847.74 366.28L804.44 391.28L761.13 366.28L761.13 316.28zM847.74 516.28L891.04 541.28L891.04 591.28L847.74 616.28L804.44 591.28L804.44 541.28zM934.34 66.28L977.65 91.28L977.65 141.28L934.34 166.28L891.04 141.28L891.04 91.28zM1020.95 216.28L1064.25 241.28L1064.25 291.28L1020.95 316.28L977.65 291.28L977.65 241.28zM977.65 291.28L1020.95 316.28L1020.95 366.28L977.65 391.28L934.34 366.28L934.34 316.28zM1064.25 -8.72L1107.55 16.28L1107.55 66.28L1064.25 91.28L1020.95 66.28L1020.95 16.28zM1064.25 291.28L1107.55 316.28L1107.55 366.28L1064.25 391.28L1020.95 366.28L1020.95 316.28zM1194.16 366.28L1237.46 391.28L1237.46 441.28L1194.16 466.28L1150.86 441.28L1150.86 391.28zM1280.76 366.28L1324.07 391.28L1324.07 441.28L1280.76 466.28L1237.46 441.28L1237.46 391.28zM1280.76 516.28L1324.07 541.28L1324.07 591.28L1280.76 616.28L1237.46 591.28L1237.46 541.28zM1453.97 66.28L1497.28 91.28L1497.28 141.28L1453.97 166.28L1410.67 141.28L1410.67 91.28zM1410.67 441.28L1453.97 466.28L1453.97 516.28L1410.67 541.28L1367.37 516.28L1367.37 466.28z" stroke="rgba(255, 217, 61, 1)" stroke-width="2"></path></g><defs><mask id="SvgjsMask1303"><rect width="1440" height="560" fill="#ffffff"></rect></mask><linearGradient x1="100%" y1="50%" x2="0%" y2="50%" gradientUnits="userSpaceOnUse" id="SvgjsLinearGradient1304"><stop stop-color="rgba(195, 177, 59, 1)" offset="0.81"></stop><stop stop-color="rgba(255, 217, 61, 1)" offset="1"></stop></linearGradient></defs></svg>